<svg width="15" height="15" viewBox="0 0 15 15" fill="none" xmlns="http://www.w3.org/2000/svg">
<g clip-path="url(#clip0)">
<path d="M13.8907 13.9339L9.89169 9.66832C10.6663 8.64772 11.1327 7.35084 11.1327 5.93837C11.1327 2.66465 8.63544 0.000915527 5.56633 0.000915527C2.49722 0.000915527 0 2.66462 0 5.93834C0 9.21206 2.49725 11.8758 5.56636 11.8758C6.89056 11.8758 8.10638 11.3783 9.06319 10.5521L13.0622 14.8176C13.1764 14.9395 13.3264 15.0008 13.4764 15.0008C13.6265 15.0008 13.7764 14.9395 13.8907 14.8176C14.1198 14.5733 14.1198 14.1783 13.8907 13.9339ZM5.56636 10.6258C3.14294 10.6258 1.17187 8.52332 1.17187 5.93834C1.17187 3.35335 3.14294 1.25088 5.56636 1.25088C7.98978 1.25088 9.96085 3.35335 9.96085 5.93834C9.96085 8.52332 7.98976 10.6258 5.56636 10.6258Z" fill="#232323" fill-opacity="0.7"/>
</g>
<defs>
<clipPath id="clip0">
<rect width="14.0625" height="15" fill="white"/>
</clipPath>
</defs>
</svg>
