<svg width="10" height="10" viewBox="0 0 10 10" fill="none" xmlns="http://www.w3.org/2000/svg">
<g clip-path="url(#clip0)">
<path d="M9.97394 3.83595C9.90848 3.63346 9.72888 3.48964 9.51639 3.47049L6.63012 3.20841L5.48881 0.537066C5.40466 0.341291 5.213 0.214563 5.00006 0.214563C4.78712 0.214563 4.59546 0.341291 4.51131 0.537524L3.37 3.20841L0.483265 3.47049C0.271162 3.4901 0.0920192 3.63346 0.0261759 3.83595C-0.0396675 4.03844 0.0211403 4.26054 0.181591 4.40054L2.36327 6.31389L1.71994 9.14775C1.67287 9.35611 1.75374 9.57149 1.92663 9.69647C2.01956 9.76361 2.12828 9.79779 2.23792 9.79779C2.33245 9.79779 2.42622 9.7723 2.51037 9.72195L5.00006 8.23395L7.48883 9.72195C7.67095 9.83151 7.90052 9.82151 8.07303 9.69647C8.24599 9.57111 8.32679 9.35565 8.27971 9.14775L7.63639 6.31389L9.81807 4.40092C9.97852 4.26054 10.0398 4.03882 9.97394 3.83595V3.83595Z" fill="#FFC107"/>
</g>
<defs>
<clipPath id="clip0">
<rect width="10" height="10" fill="white"/>
</clipPath>
</defs>
</svg>
